<?xml version="1.0" encoding="UTF-8" standalone="no"?>
<!-- Created with Inkscape (http://www.inkscape.org/) -->

<svg
   xmlns:dc="http://purl.org/dc/elements/1.1/"
   xmlns:cc="http://creativecommons.org/ns#"
   xmlns:rdf="http://www.w3.org/1999/02/22-rdf-syntax-ns#"
   xmlns:svg="http://www.w3.org/2000/svg"
   xmlns="http://www.w3.org/2000/svg"
   xmlns:sodipodi="http://sodipodi.sourceforge.net/DTD/sodipodi-0.dtd"
   xmlns:inkscape="http://www.inkscape.org/namespaces/inkscape"
   version="1.1"
   id="svg3790"
   xml:space="preserve"
   width="32"
   height="32"
   viewBox="0 0 32.000001 32.000001"
   sodipodi:docname="CCV Shape.svg"
   inkscape:version="0.92.1 r15371"><metadata
     id="metadata3796"><rdf:RDF><cc:Work
         rdf:about=""><dc:format>image/svg+xml</dc:format><dc:type
           rdf:resource="http://purl.org/dc/dcmitype/StillImage" /><dc:title></dc:title></cc:Work></rdf:RDF></metadata><defs
     id="defs3794"><clipPath
       clipPathUnits="userSpaceOnUse"
       id="clipPath3806"><path
         d="M 0,230.486 H 226.514 V 0 H 0 Z"
         id="path3804"
         inkscape:connector-curvature="0" /></clipPath></defs><sodipodi:namedview
     pagecolor="#ffffff"
     bordercolor="#666666"
     borderopacity="1"
     objecttolerance="10"
     gridtolerance="10"
     guidetolerance="10"
     inkscape:pageopacity="0"
     inkscape:pageshadow="2"
     inkscape:window-width="1366"
     inkscape:window-height="705"
     id="namedview3792"
     showgrid="false"
     inkscape:pagecheckerboard="true"
     inkscape:lockguides="true"
     inkscape:zoom="2.32"
     inkscape:cx="-16.990662"
     inkscape:cy="56.18202"
     inkscape:window-x="-8"
     inkscape:window-y="-8"
     inkscape:window-maximized="1"
     inkscape:current-layer="g3826" /><g
     id="g3798"
     inkscape:groupmode="layer"
     inkscape:label="CCV Shape"
     transform="matrix(1.3333333,0,0,-1.3333333,0,32.000003)"><g
       id="g3826"
       transform="translate(66.000002,-38.999997)"
       style="display:inline"><path
         id="path3818"
         style="display:inline;fill:#ffffff;fill-opacity:1;fill-rule:nonzero;stroke:none;stroke-width:0.09297249"
         d="m -56.272517,44.539004 c -0.537845,0.814346 -1.052915,1.172756 -1.477891,1.936522 -2.278756,-0.48987 -4.401318,0.137599 -4.657085,0.772419 0.381095,2.491103 6.027593,3.77059 8.332009,3.183097 0.264505,0.767209 0.743779,1.246298 1.117062,2.323291 -2.169419,0.81174 -5.321466,0.459006 -7.892897,-0.91262 -2.563344,-1.367254 -4.392022,-4.266134 -4.198824,-5.246808 0.191801,-0.973143 4.763538,-3.587437 8.777626,-2.055901 m 9.540037,4.629108 c -0.471927,-0.854231 -0.550678,-1.476865 -1.030229,-2.207537 1.490909,-1.791673 1.919509,-3.963139 1.475754,-4.484249 -2.383909,-0.817693 -6.136187,3.591248 -6.684536,5.905427 -0.818346,-0.06201 -1.453628,-0.01831 -2.576363,-0.08777 0.287099,-2.298561 2.061389,-4.927356 4.46928,-6.56953 2.400179,-1.636781 5.816454,-1.912444 6.595656,-1.286367 0.77344,0.621242 0.968959,5.884041 -2.249562,8.730022 m -9.119393,5.468802 c 0.969518,0.112311 1.521866,0.410009 2.395251,0.444314 0.591676,2.254489 2.109918,3.865147 2.791871,3.806761 2.050695,-1.464783 0.642998,-7.080694 -0.921636,-8.871716 0.565177,-0.582287 0.776321,-1.226215 1.56863,-2.045579 1.703814,1.569282 2.812139,4.540962 2.749199,7.454719 -0.06267,2.90446 -1.823564,5.844994 -2.785829,6.115264 -0.954919,0.268319 -5.351591,-2.630654 -5.797486,-6.903763"
         inkscape:connector-curvature="0" /></g></g></svg>