<?xml version="1.0" encoding="UTF-8" standalone="no"?>
<!-- Created with Inkscape (http://www.inkscape.org/) -->

<svg
   xmlns:dc="http://purl.org/dc/elements/1.1/"
   xmlns:cc="http://creativecommons.org/ns#"
   xmlns:rdf="http://www.w3.org/1999/02/22-rdf-syntax-ns#"
   xmlns:svg="http://www.w3.org/2000/svg"
   xmlns="http://www.w3.org/2000/svg"
   xmlns:sodipodi="http://sodipodi.sourceforge.net/DTD/sodipodi-0.dtd"
   xmlns:inkscape="http://www.inkscape.org/namespaces/inkscape"
   version="1.1"
   id="svg3680"
   xml:space="preserve"
   width="466.66666"
   height="150"
   viewBox="0 0 466.66666 150"
   sodipodi:docname="webhead1.svg"
   inkscape:version="0.92.1 r15371"><metadata
     id="metadata3686"><rdf:RDF><cc:Work
         rdf:about=""><dc:format>image/svg+xml</dc:format><dc:type
           rdf:resource="http://purl.org/dc/dcmitype/StillImage" /><dc:title></dc:title></cc:Work></rdf:RDF></metadata><defs
     id="defs3684"><clipPath
       clipPathUnits="userSpaceOnUse"
       id="clipPath3760"><path
         d="M 0,120 H 350 V 0 H 0 Z"
         id="path3758"
         inkscape:connector-curvature="0" /></clipPath><clipPath
       clipPathUnits="userSpaceOnUse"
       id="clipPath3760-5"><path
         d="M 0,120 H 350 V 0 H 0 Z"
         id="path3758-4"
         inkscape:connector-curvature="0" /></clipPath></defs><sodipodi:namedview
     pagecolor="#ffffff"
     bordercolor="#666666"
     borderopacity="1"
     objecttolerance="10"
     gridtolerance="10"
     guidetolerance="10"
     inkscape:pageopacity="0"
     inkscape:pageshadow="2"
     inkscape:window-width="1366"
     inkscape:window-height="705"
     id="namedview3682"
     showgrid="false"
     inkscape:zoom="0.495"
     inkscape:cx="150.07424"
     inkscape:cy="290.87439"
     inkscape:window-x="-8"
     inkscape:window-y="-8"
     inkscape:window-maximized="1"
     inkscape:current-layer="g3688" /><g
     id="g3688"
     inkscape:groupmode="layer"
     inkscape:label="webhead1"
     transform="matrix(1.3333333,0,0,-1.3333333,0,150)"><g
       id="g3690"
       transform="translate(0,-4.5)"><g
         transform="translate(101.8535,27.3652)"
         id="g3698"><path
           inkscape:connector-curvature="0"
           id="path3700"
           style="fill:#62262b;fill-opacity:1;fill-rule:nonzero;stroke:none"
           d="m 0,0 c 0,-9.772 -7.922,-17.694 -17.693,-17.694 h -65.272 c -9.771,0 -17.693,7.922 -17.693,17.694 v 65.271 c 0,9.771 7.922,17.693 17.693,17.693 h 65.272 C -7.922,82.964 0,75.042 0,65.271 Z" /></g><g
         transform="translate(43.3604,78.4434)"
         id="g3702"><path
           inkscape:connector-curvature="0"
           id="path3704"
           style="fill:#ffffff;fill-opacity:1;fill-rule:nonzero;stroke:none"
           d="m 0,0 c 3.91,0.453 6.138,1.654 9.66,1.792 2.385,9.092 8.508,15.586 11.258,15.351 8.27,-5.907 2.593,-28.554 -3.716,-35.776 2.279,-2.348 3.13,-4.946 6.325,-8.249 6.871,6.328 11.34,18.311 11.087,30.062 C 34.361,14.893 27.26,26.75 23.38,27.841 19.528,28.922 1.799,17.232 0,0" /></g><g
         transform="translate(80.1362,56.3896)"
         id="g3706"><path
           inkscape:connector-curvature="0"
           id="path3708"
           style="fill:#ffffff;fill-opacity:1;fill-rule:nonzero;stroke:none"
           d="m 0,0 c -1.904,-3.445 -2.221,-5.956 -4.155,-8.902 6.013,-7.225 7.741,-15.982 5.951,-18.083 -9.613,-3.298 -24.744,14.482 -26.956,23.814 -3.3,-0.25 -5.862,-0.075 -10.39,-0.354 1.158,-9.269 8.313,-19.871 18.024,-26.493 9.679,-6.6 23.455,-7.711 26.597,-5.188 C 12.19,-32.699 12.979,-11.477 0,0" /></g><g
         transform="translate(41.6641,37.7217)"
         id="g3710"><path
           inkscape:connector-curvature="0"
           id="path3712"
           style="fill:#ffffff;fill-opacity:1;fill-rule:nonzero;stroke:none"
           d="m 0,0 c -2.168,3.284 -4.246,4.73 -5.959,7.811 -9.19,-1.977 -17.75,0.553 -18.781,3.113 1.537,10.047 24.307,15.206 33.6,12.837 1.067,3.094 2.999,5.026 4.505,9.369 -8.749,3.273 -21.46,1.851 -31.829,-3.681 C -28.801,23.937 -36.176,12.246 -35.397,8.291 -34.624,4.366 -16.187,-6.177 0,0" /></g><text
         id="text3716"
         style="font-style:italic;font-variant:normal;font-weight:bold;font-stretch:normal;font-size:73.68071747px;font-family:Cambria;-inkscape-font-specification:Cambria-BoldItalic;writing-mode:lr-tb;display:none;fill:#e5e5e6;fill-opacity:1;fill-rule:nonzero;stroke:none;stroke-width:0.78447253"
         transform="scale(0.78447253,-1.2747419)"
         x="126.90527"
         y="-21.834225"
         inkscape:label="text3716"><tspan
           id="tspan3714"
           sodipodi:role="line"
           y="-21.834225"
           x="126.90527 172.58733 196.60724 241.47879 279.97696 318.22464 361.99097 396.63565"
           style="stroke-width:0.78447253">Vineyard</tspan></text>
<g
         transform="translate(117.0239,42.6006)"
         id="g3718"
         style="display:inline"><path
           inkscape:connector-curvature="0"
           id="path3720"
           style="fill:#e6e6e6;stroke:#6d6e71;stroke-width:0.60299999;stroke-linecap:round;stroke-linejoin:round;stroke-miterlimit:10;stroke-dasharray:none;stroke-opacity:1"
           d="m 0,0 h -0.339 c 0,2.721 -0.019,6.191 -0.057,10.41 l -0.253,22.518 c -0.019,0.764 -0.029,1.483 -0.029,2.155 v 1.973 c 0,1.956 0.099,3.423 0.297,4.402 0.197,0.979 0.527,1.758 0.987,2.339 0.461,0.581 1.105,0.917 1.934,1.009 l 0.423,3.027 h -14.591 l -0.423,-3.027 c 0.413,-0.092 0.79,-0.275 1.129,-0.55 0.338,-0.276 0.615,-0.673 0.832,-1.193 0.216,-0.52 0.4,-1.162 0.55,-1.926 0.151,-0.764 0.273,-1.689 0.367,-2.774 0.094,-1.086 0.16,-2.561 0.198,-4.426 l 1.213,-49.026 h 7.084 l 17.527,51.182 c 0.451,1.314 0.86,2.468 1.228,3.462 0.366,0.993 0.743,1.85 1.129,2.569 0.385,0.717 0.794,1.298 1.227,1.742 0.433,0.443 0.932,0.757 1.496,0.94 l 0.424,3.027 H 10.33 L 9.906,44.806 c 1.599,-0.337 2.399,-1.605 2.399,-3.806 0,-0.826 -0.066,-1.705 -0.198,-2.637 -0.131,-0.933 -0.395,-2.11 -0.79,-3.531 -0.395,-1.422 -1.129,-3.769 -2.201,-7.04 z"
           inkscape:label="path3720" /></g><g
         transform="translate(146.1821,91.626)"
         id="g3722"><path
           inkscape:connector-curvature="0"
           id="path3724"
           style="fill:#e6e6e6;stroke:#6d6e71;stroke-width:0.60299999;stroke-linecap:round;stroke-linejoin:round;stroke-miterlimit:10;stroke-dasharray:none;stroke-opacity:1"
           d="M 0,0 -1.552,-11.236 H 5.757 L 7.225,0 Z M 5.25,-17.794 H 2.032 l -8.269,-0.505 -0.424,-3.026 c 1.11,-0.184 1.839,-0.528 2.187,-1.032 0.349,-0.505 0.523,-1.353 0.523,-2.546 0,-0.703 -0.048,-1.567 -0.141,-2.591 -0.095,-1.025 -0.264,-2.453 -0.509,-4.288 l -4.402,-32.011 h 11.74 l 0.311,3.026 c -1.035,0.184 -1.764,0.566 -2.187,1.148 -0.424,0.58 -0.635,1.528 -0.635,2.843 0,0.489 0.028,1.1 0.085,1.835 0.056,0.733 0.187,1.864 0.395,3.393 z" /></g><g
         transform="translate(184.5137,30.8594)"
         id="g3726"><path
           inkscape:connector-curvature="0"
           id="path3728"
           style="fill:#e6e6e6;stroke:#6d6e71;stroke-width:0.60299999;stroke-linecap:round;stroke-linejoin:round;stroke-miterlimit:10;stroke-dasharray:none;stroke-opacity:1"
           d="m 0,0 c -1.035,0.184 -1.765,0.551 -2.188,1.102 -0.423,0.549 -0.634,1.512 -0.634,2.888 0,0.551 0.032,1.208 0.098,1.973 0.066,0.764 0.193,1.849 0.381,3.256 l 2.315,16.968 c 0.376,2.752 0.564,5.121 0.564,7.109 0,3.087 -0.556,5.51 -1.665,7.269 -1.11,1.758 -2.635,2.637 -4.572,2.637 -1.337,0 -2.555,-0.329 -3.655,-0.986 -1.101,-0.658 -2.207,-1.728 -3.316,-3.211 -1.111,-1.483 -2.315,-3.524 -3.613,-6.122 l -0.339,0.183 1.609,9.907 h -2.964 l -7.761,-0.505 -0.423,-3.027 c 0.94,-0.122 1.632,-0.42 2.074,-0.894 0.442,-0.475 0.664,-1.353 0.664,-2.637 0,-0.917 -0.081,-2.057 -0.241,-3.417 -0.159,-1.361 -0.287,-2.408 -0.38,-3.141 l -4.432,-32.378 h 8.101 l 3.104,23.526 c 0.32,2.599 0.743,4.771 1.27,6.513 0.527,1.742 1.232,3.394 2.117,4.953 0.884,1.559 1.683,2.705 2.399,3.439 0.715,0.734 1.373,1.101 1.975,1.101 0.678,0 1.195,-0.337 1.553,-1.009 0.356,-0.673 0.536,-1.697 0.536,-3.073 0,-0.764 -0.056,-1.819 -0.17,-3.164 -0.112,-1.346 -0.423,-3.791 -0.931,-7.338 l -3.528,-24.948 h 11.713 z" /></g><g
         transform="translate(212.7969,41.2246)"
         id="g3730"><path
           inkscape:connector-curvature="0"
           id="path3732"
           style="fill:#e6e6e6;stroke:#6d6e71;stroke-width:0.60299999;stroke-linecap:round;stroke-linejoin:round;stroke-miterlimit:10;stroke-dasharray:none;stroke-opacity:1"
           d="M 0,0 C -1.807,-2.782 -3.378,-4.717 -4.714,-5.802 -6.05,-6.887 -7.546,-7.43 -9.201,-7.43 c -0.885,0 -1.609,0.237 -2.173,0.711 -0.564,0.474 -1.017,1.108 -1.355,1.904 -0.338,0.794 -0.574,1.704 -0.706,2.728 -0.131,1.025 -0.197,2.102 -0.197,3.233 0,1.926 0.122,3.791 0.366,5.595 3.444,0.122 6.383,0.627 8.821,1.514 2.436,0.887 4.322,2.048 5.658,3.485 1.336,1.437 2.291,3.042 2.865,4.816 0.573,1.773 0.86,3.821 0.86,6.145 0,3.424 -0.733,5.969 -2.201,7.636 -1.467,1.666 -3.612,2.499 -6.434,2.499 -2.39,0 -4.587,-0.627 -6.591,-1.88 -2.003,-1.254 -3.749,-3.042 -5.235,-5.366 -1.487,-2.323 -2.691,-5.106 -3.613,-8.346 -0.733,-2.63 -1.279,-5.626 -1.636,-8.989 -0.264,-2.477 -0.396,-4.51 -0.396,-6.1 0,-3.425 0.391,-6.367 1.172,-8.828 0.78,-2.462 1.942,-4.319 3.485,-5.572 1.543,-1.253 3.415,-1.88 5.616,-1.88 2.559,0 4.935,0.84 7.126,2.522 2.193,1.681 4.239,4.265 6.139,7.75 z m -9.131,23.848 c 1.402,2.812 2.978,4.219 4.728,4.219 0.79,0 1.406,-0.405 1.848,-1.215 0.443,-0.811 0.663,-1.995 0.663,-3.555 0,-3.669 -0.917,-6.505 -2.751,-8.507 -1.835,-2.003 -4.483,-3.08 -7.945,-3.233 0.903,5.38 2.056,9.478 3.457,12.291 z" /></g><g
         transform="translate(229.2549,27.833)"
         id="g3734"><path
           inkscape:connector-curvature="0"
           id="path3736"
           style="fill:#e6e6e6;stroke:#6d6e71;stroke-width:0.60299999;stroke-linecap:round;stroke-linejoin:round;stroke-miterlimit:10;stroke-dasharray:none;stroke-opacity:1"
           d="m 0,0 c -1.167,-2.385 -2.201,-4.395 -3.104,-6.03 -0.904,-1.636 -1.684,-2.897 -2.343,-3.784 -0.658,-0.887 -1.303,-1.543 -1.933,-1.972 -0.631,-0.428 -1.341,-0.643 -2.131,-0.643 -0.583,0 -1.025,0.307 -1.327,0.918 -0.3,0.612 -0.46,1.559 -0.479,2.843 h -2.992 l -1.382,-10.318 c 0.583,-0.306 1.246,-0.558 1.989,-0.757 0.743,-0.198 1.397,-0.298 1.962,-0.298 1.204,0 2.266,0.199 3.188,0.596 0.922,0.397 1.797,1.008 2.625,1.835 1.035,0.978 2.126,2.384 3.275,4.218 1.523,2.416 3.414,6.008 5.673,10.778 2.69,5.686 5.244,11.404 7.662,17.152 2.417,5.748 4.435,10.976 6.053,15.685 1.618,4.708 2.823,8.789 3.613,12.245 l -0.988,3.026 h -7.959 l -0.395,-3.026 c 0.847,-0.062 1.439,-0.39 1.778,-0.987 0.339,-0.596 0.508,-1.475 0.508,-2.636 0,-2.936 -0.673,-6.62 -2.018,-11.053 C 9.93,23.358 7.837,17.84 4.996,11.236 L 3.048,45.494 H -6.886 L -7.31,42.468 c 0.772,-0.123 1.341,-0.444 1.707,-0.964 0.368,-0.52 0.66,-1.337 0.875,-2.453 0.217,-1.116 0.41,-2.79 0.58,-5.022 L -1.608,0 Z" /></g><g
         transform="translate(268.2627,74.061)"
         id="g3738"
         style="fill:#e6e6e6"><path
           inkscape:connector-curvature="0"
           id="path3740"
           style="fill:#e6e6e6;stroke:#6d6e71;stroke-width:0.60299999;stroke-linecap:round;stroke-linejoin:round;stroke-miterlimit:10;stroke-dasharray:none;stroke-opacity:1"
           d="m 0,0 c -2.051,0 -3.946,-0.527 -5.687,-1.582 -1.74,-1.055 -3.297,-2.591 -4.67,-4.609 -1.374,-2.018 -2.512,-4.441 -3.415,-7.269 -0.904,-2.829 -1.585,-5.878 -2.046,-9.15 -0.462,-3.271 -0.692,-6.512 -0.692,-9.723 0,-3.363 0.291,-6.137 0.875,-8.323 0.583,-2.186 1.373,-3.783 2.37,-4.793 0.997,-1.009 2.155,-1.512 3.472,-1.512 1.393,0 2.62,0.305 3.683,0.917 1.063,0.611 2.145,1.658 3.246,3.141 1.1,1.483 2.29,3.57 3.57,6.26 l 0.367,-0.184 -1.524,-9.401 h 10.838 l 0.31,3.026 c -1.054,0.154 -1.788,0.535 -2.202,1.148 -0.414,0.61 -0.62,1.604 -0.62,2.98 0,0.672 0.051,1.498 0.155,2.477 0.103,0.978 0.268,2.277 0.493,3.898 L 12.87,-0.734 9.709,0 7.169,-3.302 C 5.193,-1.101 2.804,0 0,0 Z m 2.682,-19.399 c -0.621,-4.617 -1.327,-8.255 -2.118,-10.915 -0.79,-2.66 -1.83,-4.977 -3.118,-6.948 -1.289,-1.972 -2.554,-2.958 -3.796,-2.958 -0.846,0 -1.472,0.551 -1.877,1.651 -0.405,1.101 -0.606,2.767 -0.606,4.998 0,3.822 0.413,8.149 1.241,12.98 0.828,4.83 1.919,8.674 3.275,11.533 1.354,2.859 2.906,4.288 4.656,4.288 1.072,0 1.844,-0.52 2.314,-1.559 0.47,-1.04 0.706,-2.568 0.706,-4.586 0,-1.131 -0.043,-2.301 -0.128,-3.508 -0.084,-1.208 -0.192,-2.301 -0.324,-3.28 z" /></g><g
         transform="translate(312.3242,73.1899)"
         id="g3742"><path
           inkscape:connector-curvature="0"
           id="path3744"
           style="fill:#e6e6e6;stroke:#6d6e71;stroke-width:0.60299999;stroke-linecap:round;stroke-linejoin:round;stroke-miterlimit:10;stroke-dasharray:none;stroke-opacity:1"
           d="m 0,0 c -1.393,0.58 -2.709,0.871 -3.951,0.871 -2.032,0 -3.923,-0.933 -5.673,-2.797 -1.75,-1.866 -3.415,-4.617 -4.995,-8.255 l -0.339,0.183 2.116,10.64 h -3.188 l -7.762,-0.505 -0.423,-3.026 c 0.941,-0.123 1.632,-0.421 2.074,-0.895 0.442,-0.474 0.663,-1.353 0.663,-2.637 0,-1.346 -0.207,-3.531 -0.621,-6.558 l -4.43,-32.378 h 8.099 l 3.105,23.526 c 0.225,1.804 0.47,3.295 0.734,4.472 0.263,1.177 0.592,2.301 0.987,3.371 0.396,1.07 0.889,2.171 1.482,3.302 0.593,1.131 1.101,1.949 1.524,2.454 0.423,0.504 0.8,0.856 1.129,1.055 0.329,0.198 0.645,0.298 0.946,0.298 0.658,0 1.124,-0.398 1.397,-1.193 0.272,-0.795 0.409,-2.217 0.409,-4.265 h 5.052 z" /></g><g
         transform="translate(334.5957,72.6396)"
         id="g3746"><path
           inkscape:connector-curvature="0"
           id="path3748"
           style="fill:#e6e6e6;stroke:#6d6e71;stroke-width:0.60299999;stroke-linecap:round;stroke-linejoin:round;stroke-miterlimit:10;stroke-dasharray:none;stroke-opacity:1"
           d="m 0,0 c -1.562,0.947 -3.18,1.421 -4.854,1.421 -2.051,0 -3.947,-0.527 -5.687,-1.582 -1.74,-1.054 -3.298,-2.591 -4.671,-4.609 -1.374,-2.018 -2.508,-4.441 -3.4,-7.269 -0.895,-2.828 -1.572,-5.878 -2.033,-9.149 -0.461,-3.272 -0.691,-6.512 -0.691,-9.723 0,-3.363 0.291,-6.138 0.875,-8.323 0.583,-2.187 1.373,-3.784 2.37,-4.793 0.997,-1.009 2.154,-1.513 3.472,-1.513 1.392,0 2.62,0.306 3.682,0.917 1.064,0.611 2.146,1.658 3.247,3.142 1.1,1.482 2.29,3.569 3.57,6.259 l 0.367,-0.183 -1.524,-9.402 H 5.561 l 0.31,3.027 c -1.055,0.153 -1.788,0.535 -2.202,1.147 -0.414,0.611 -0.62,1.605 -0.62,2.981 0,0.703 0.055,1.566 0.169,2.59 0.113,1.025 0.272,2.286 0.479,3.785 L 10.81,20.867 H 7.62 L -0.818,20.133 -1.27,17.152 c 0.828,-0.184 1.383,-0.344 1.666,-0.482 0.282,-0.137 0.507,-0.329 0.677,-0.573 0.169,-0.245 0.296,-0.558 0.381,-0.94 0.084,-0.383 0.127,-0.91 0.127,-1.582 0,-0.734 -0.075,-1.82 -0.226,-3.257 C 1.204,8.881 1.073,7.78 0.96,7.017 Z m -2.145,-17.978 c -0.621,-4.617 -1.326,-8.254 -2.117,-10.915 -0.79,-2.66 -1.83,-4.976 -3.118,-6.948 -1.289,-1.972 -2.555,-2.958 -3.796,-2.958 -0.846,0 -1.472,0.551 -1.877,1.652 -0.405,1.1 -0.606,2.766 -0.606,4.998 0,3.822 0.413,8.148 1.241,12.979 0.828,4.83 1.919,8.675 3.274,11.534 1.355,2.858 2.907,4.288 4.657,4.288 1.072,0 1.843,-0.52 2.314,-1.559 0.47,-1.04 0.706,-2.584 0.706,-4.633 0,-1.162 -0.048,-2.346 -0.141,-3.554 -0.095,-1.208 -0.198,-2.269 -0.311,-3.187 z" /></g></g><g
       id="g3754"
       transform="translate(0,-4.5)"><g
         id="g3756"
         clip-path="url(#clipPath3760)"
         style="fill:#e6e6e6"><g
           id="g3762"
           transform="translate(181.3516,88.1563)"
           style="fill:#e6e6e6"><path
             d="M 0,0 H 4.584 L 4.74,1.312 H 1.864 c -1.255,0 -2.108,1.373 -1.882,3.014 l 0.627,4.743 c 0.227,1.67 1.448,3.042 2.703,3.042 h 2.875 l 0.174,1.313 H 1.795 c -2.283,0 -4.358,-1.76 -4.758,-4.773 L -3.486,4.773 C -3.887,1.76 -2.283,0 0,0 Z"
             style="fill:#e6e6e6;stroke:#7d7e81;stroke-width:0.5;stroke-linecap:butt;stroke-linejoin:miter;stroke-miterlimit:10;stroke-dasharray:none;stroke-opacity:1"
             id="path3764"
             inkscape:connector-curvature="0" /></g><g
           id="g3766"
           transform="translate(196.0088,101.6104)"
           style="fill:#e6e6e6"><path
             d="m 0,0 h -4.479 l -0.174,-1.312 h 2.805 c 1.273,0 2.127,-1.373 1.901,-3.043 l -0.122,-0.806 h -2.545 c -1.186,0 -2.231,-0.298 -3.085,-1.074 -0.889,-0.776 -1.395,-1.581 -1.551,-2.893 -0.192,-1.373 0.209,-2.596 0.906,-3.282 0.68,-0.716 1.638,-1.044 2.684,-1.044 h 2.492 3.538 l 1.151,8.651 C 3.922,-1.76 2.318,0 0,0 Z m -1.812,-12.112 c -0.75,0 -2.162,0.985 -1.917,2.775 0.104,0.775 0.522,2.863 2.596,2.863 h 0.889 l -0.749,-5.638 z"
             style="fill:#e6e6e6;stroke:#7d7e81;stroke-width:0.5;stroke-linecap:butt;stroke-linejoin:miter;stroke-miterlimit:10;stroke-dasharray:none;stroke-opacity:1"
             id="path3768"
             inkscape:connector-curvature="0" /></g><g
           id="g3770"
           transform="translate(206.9365,101.5806)"
           style="fill:#e6e6e6"><path
             d="m 0,0 c -2.318,0 -4.479,-2.148 -4.88,-5.459 l -1.97,-14.677 h 3.538 l 0.907,6.712 h 2.649 c 2.283,0 4.253,1.879 4.671,5.19 l 0.349,2.775 C 5.682,-2.446 4.166,0 1.865,0 Z m -1.186,-4.266 c 0.227,1.67 0.437,3.043 1.692,3.043 h 0.191 c 1.238,0 1.429,-1.373 1.202,-3.043 L 1.237,-9.218 c -0.226,-1.671 -1.446,-2.953 -2.701,-2.953 h -0.784 z"
             style="fill:#e6e6e6;stroke:#7d7e81;stroke-width:0.5;stroke-linecap:butt;stroke-linejoin:miter;stroke-miterlimit:10;stroke-dasharray:none;stroke-opacity:1"
             id="path3772"
             inkscape:connector-curvature="0" /></g><g
           id="g3774"
           transform="translate(215.6162,101.5806)"
           style="fill:#e6e6e6"><path
             d="M 0,0 -1.795,-13.424 H 1.761 L 3.556,0 Z M 0.854,6.533 0.488,3.818 H 4.044 L 4.41,6.533 Z"
             style="fill:#e6e6e6;stroke:#7d7e81;stroke-width:0.5;stroke-linecap:butt;stroke-linejoin:miter;stroke-miterlimit:10;stroke-dasharray:none;stroke-opacity:1"
             id="path3776"
             inkscape:connector-curvature="0" /></g><g
           id="g3778"
           transform="translate(220.6191,100.3574)"
           style="fill:#e6e6e6"><path
             d="M 0,0 H 1.237 L 0.331,-6.832 c -0.435,-3.251 1.08,-5.369 3.451,-5.369 h 3.19 l 0.156,1.253 H 5.629 c -1.272,0 -2.126,1.253 -1.9,2.923 L 4.793,0 H 6.152 L 6.344,1.283 H 4.984 L 5.855,7.846 H 2.301 L 1.411,1.283 H 0.174 Z"
             style="fill:#e6e6e6;stroke:#7d7e81;stroke-width:0.5;stroke-linecap:butt;stroke-linejoin:miter;stroke-miterlimit:10;stroke-dasharray:none;stroke-opacity:1"
             id="path3780"
             inkscape:connector-curvature="0" /></g><g
           id="g3782"
           transform="translate(237.1934,101.6104)"
           style="fill:#e6e6e6"><path
             d="m 0,0 h -4.479 l -0.174,-1.312 h 2.805 c 1.273,0 2.127,-1.373 1.901,-3.043 l -0.122,-0.806 h -2.545 c -1.186,0 -2.231,-0.298 -3.085,-1.074 -0.889,-0.776 -1.395,-1.581 -1.551,-2.893 -0.192,-1.373 0.209,-2.596 0.906,-3.282 0.68,-0.716 1.638,-1.044 2.684,-1.044 h 2.492 3.538 l 1.151,8.651 C 3.922,-1.76 2.318,0 0,0 Z m -1.812,-12.112 c -0.75,0 -2.162,0.985 -1.917,2.775 0.104,0.775 0.522,2.863 2.596,2.863 h 0.889 l -0.749,-5.638 z"
             style="fill:#e6e6e6;stroke:#7d7e81;stroke-width:0.5;stroke-linecap:butt;stroke-linejoin:miter;stroke-miterlimit:10;stroke-dasharray:none;stroke-opacity:1"
             id="path3784"
             inkscape:connector-curvature="0" /></g><g
           id="g3786"
           transform="translate(248.4004,108.2031)"
           style="fill:#e6e6e6"><path
             d="m 0,0 h -3.556 l -1.429,-10.739 -0.54,-3.938 c -0.418,-3.252 1.097,-5.37 3.451,-5.37 h 1.882 1.307 l 0.157,1.253 h -1.499 c -1.254,0 -2.127,1.253 -1.9,2.923 l 0.715,5.132 z"
             style="fill:#e6e6e6;stroke:#7d7e81;stroke-width:0.5;stroke-linecap:butt;stroke-linejoin:miter;stroke-miterlimit:10;stroke-dasharray:none;stroke-opacity:1"
             id="path3788"
             inkscape:connector-curvature="0" /></g><g
           id="g3790"
           transform="translate(262.9014,88.1563)"
           style="fill:#e6e6e6"><path
             d="M 0,0 H 4.584 L 4.74,1.312 H 1.864 c -1.255,0 -2.108,1.373 -1.882,3.014 l 0.627,4.743 c 0.227,1.67 1.448,3.042 2.703,3.042 h 2.875 l 0.174,1.313 H 1.795 c -2.283,0 -4.358,-1.76 -4.758,-4.773 L -3.486,4.773 C -3.887,1.76 -2.283,0 0,0 Z"
             style="fill:#e6e6e6;stroke:#7d7e81;stroke-width:0.5;stroke-linecap:butt;stroke-linejoin:miter;stroke-miterlimit:10;stroke-dasharray:none;stroke-opacity:1"
             id="path3792"
             inkscape:connector-curvature="0" /></g><g
           id="g3794"
           transform="translate(271.4756,101.5806)"
           style="fill:#e6e6e6"><path
             d="M 0,0 -1.795,-13.424 H 1.761 L 3.556,0 Z M 0.854,6.533 0.488,3.818 H 4.044 L 4.41,6.533 Z"
             style="fill:#e6e6e6;stroke:#7d7e81;stroke-width:0.5;stroke-linecap:butt;stroke-linejoin:miter;stroke-miterlimit:10;stroke-dasharray:none;stroke-opacity:1"
             id="path3796"
             inkscape:connector-curvature="0" /></g><g
           id="g3798"
           transform="translate(276.4785,100.3574)"
           style="fill:#e6e6e6"><path
             d="M 0,0 H 1.237 L 0.331,-6.832 c -0.435,-3.251 1.08,-5.369 3.451,-5.369 h 3.19 l 0.156,1.253 H 5.629 c -1.272,0 -2.126,1.253 -1.9,2.923 L 4.793,0 H 6.152 L 6.344,1.283 H 4.984 L 5.855,7.846 H 2.301 L 1.411,1.283 H 0.174 Z"
             style="fill:#e6e6e6;stroke:#7d7e81;stroke-width:0.5;stroke-linecap:butt;stroke-linejoin:miter;stroke-miterlimit:10;stroke-dasharray:none;stroke-opacity:1"
             id="path3800"
             inkscape:connector-curvature="0" /></g><g
           id="g3802"
           transform="translate(286.9707,101.6401)"
           style="fill:#e6e6e6"><path
             d="m 0,0 -1.062,-8.025 c -0.437,-3.132 1.132,-5.459 3.416,-5.459 H 4.532 L 4.166,-16.049 C 3.939,-17.72 2.754,-19.062 1.481,-19.062 h -2.003 l -0.192,-1.253 h 3.73 c 2.283,0 4.462,2.297 4.862,5.459 L 9.865,0 H 6.31 L 4.688,-12.231 H 4.201 c -1.255,0 -2.092,1.342 -1.865,3.013 L 3.556,0 Z"
             style="fill:#e6e6e6;stroke:#7d7e81;stroke-width:0.5;stroke-linecap:butt;stroke-linejoin:miter;stroke-miterlimit:10;stroke-dasharray:none;stroke-opacity:1"
             id="path3804"
             inkscape:connector-curvature="0" /></g></g></g></g></svg>