<?xml version="1.0" encoding="UTF-8" standalone="no"?>
<svg
   xmlns:dc="http://purl.org/dc/elements/1.1/"
   xmlns:cc="http://creativecommons.org/ns#"
   xmlns:rdf="http://www.w3.org/1999/02/22-rdf-syntax-ns#"
   xmlns:svg="http://www.w3.org/2000/svg"
   xmlns="http://www.w3.org/2000/svg"
   xmlns:sodipodi="http://sodipodi.sourceforge.net/DTD/sodipodi-0.dtd"
   xmlns:inkscape="http://www.inkscape.org/namespaces/inkscape"
   viewBox="0 0 496 512"
   version="1.1"
   id="svg4"
   sodipodi:docname="rockrms.svg"
   inkscape:export-filename="C:\Users\matt\Documents\rock\Themes\Rock\Assets\Icons\c.192.png"
   inkscape:export-xdpi="37.161289"
   inkscape:export-ydpi="37.161289"
   inkscape:version="0.92.2 (5c3e80d, 2017-08-06)">
  <metadata
     id="metadata10">
    <rdf:RDF>
      <cc:Work
         rdf:about="">
        <dc:format>image/svg+xml</dc:format>
        <dc:type
           rdf:resource="http://purl.org/dc/dcmitype/StillImage" />
        <dc:title></dc:title>
      </cc:Work>
    </rdf:RDF>
  </metadata>
  <defs
     id="defs8" />
  <sodipodi:namedview
     pagecolor="#ffffff"
     bordercolor="#666666"
     borderopacity="1"
     objecttolerance="10"
     gridtolerance="10"
     guidetolerance="10"
     inkscape:pageopacity="0"
     inkscape:pageshadow="2"
     inkscape:window-width="1680"
     inkscape:window-height="938"
     id="namedview6"
     showgrid="false"
     inkscape:zoom="0.4609375"
     inkscape:cx="-104.54237"
     inkscape:cy="257.08475"
     inkscape:window-x="-8"
     inkscape:window-y="-8"
     inkscape:window-maximized="1"
     inkscape:current-layer="svg4" />
  <path
     style="fill:#242b61;fill-opacity:0.94117647"
     d="M 248,8 C 111,8 0,119 0,256 0,393 111,504 248,504 385,504 496,393 496,256 496,119 385,8 248,8 Z"
     id="path4508" />
  <path
     style="fill:#ffffff;fill-opacity:0.94117647"
     d="m 405.4,427.5 h -90 l -112,-131.3 c -17.9,-20.4 -3.9,-56.1 26.6,-56.1 h 75.3 l -84.6,-99.3 -84.3,98.9 h -90 L 193.5,67.2 c 14.4,-18.4 41.3,-17.3 54.5,0 l 157.7,185.1 c 19,22.8 2,57.2 -27.6,56.1 -0.6,0 -74.2,0.2 -74.2,0.2 z"
     id="path2" />
</svg>
