<?xml version="1.0" encoding="UTF-8" standalone="no"?>
<svg
   xmlns:dc="http://purl.org/dc/elements/1.1/"
   xmlns:cc="http://creativecommons.org/ns#"
   xmlns:rdf="http://www.w3.org/1999/02/22-rdf-syntax-ns#"
   xmlns:svg="http://www.w3.org/2000/svg"
   xmlns="http://www.w3.org/2000/svg"
   xmlns:sodipodi="http://sodipodi.sourceforge.net/DTD/sodipodi-0.dtd"
   xmlns:inkscape="http://www.inkscape.org/namespaces/inkscape"
   viewBox="0 0 512 512"
   version="1.1"
   id="svg4"
   sodipodi:docname="c.archive.svg"
   inkscape:export-filename="C:\Users\matt\Documents\rock\Themes\Rock\Assets\Icons\c.36.png"
   inkscape:export-xdpi="6.75"
   inkscape:export-ydpi="6.75"
   inkscape:version="0.92.2 (5c3e80d, 2017-08-06)"
   width="512"
   height="512">
  <metadata
     id="metadata10">
    <rdf:RDF>
      <cc:Work
         rdf:about="">
        <dc:format>image/svg+xml</dc:format>
        <dc:type
           rdf:resource="http://purl.org/dc/dcmitype/StillImage" />
        <dc:title></dc:title>
      </cc:Work>
    </rdf:RDF>
  </metadata>
  <defs
     id="defs8" />
  <sodipodi:namedview
     pagecolor="#ffffff"
     bordercolor="#666666"
     borderopacity="1"
     objecttolerance="10"
     gridtolerance="10"
     guidetolerance="10"
     inkscape:pageopacity="0"
     inkscape:pageshadow="2"
     inkscape:window-width="1680"
     inkscape:window-height="987"
     id="namedview6"
     showgrid="false"
     inkscape:zoom="0.4609375"
     inkscape:cx="-428.88135"
     inkscape:cy="249.08475"
     inkscape:window-x="-8"
     inkscape:window-y="-8"
     inkscape:window-maximized="1"
     inkscape:current-layer="svg4"
     fit-margin-top="0"
     fit-margin-left="0"
     fit-margin-right="0"
     fit-margin-bottom="0" />
  <path
     style="fill:#242b61;fill-opacity:1;stroke-width:1.03225803"
     d="M 256,0 C 114.58065,0 0,114.58065 0,256 0,397.41935 114.58065,512 256,512 397.41935,512 512,397.41935 512,256 512,114.58065 397.41935,0 256,0 Z"
     id="path4508"
     inkscape:connector-curvature="0" />
  <path
     style="fill:#ffffff;fill-opacity:0.94117647"
     d="m 431.34095,422.84534 h -90 l -112,-131.3 c -17.9,-20.4 -3.9,-56.1 26.6,-56.1 h 75.3 l -84.6,-99.3 -84.3,98.9 H 72.340949 L 219.44095,62.545338 c 14.4,-18.4 41.3,-17.3 54.5,0 l 157.7,185.100002 c 19,22.8 2,57.2 -27.6,56.1 -0.6,0 -74.2,0.2 -74.2,0.2 z"
     id="path2"
     inkscape:connector-curvature="0" />
</svg>
